<?xml version="1.0" encoding="UTF-8"?><svg xmlns="http://www.w3.org/2000/svg" viewBox="0 0 250 70"><defs><style>.uuid-b650895c-d081-4154-890b-d47883039b25{fill:#f55;}</style></defs><g id="uuid-e9f95c40-71fa-44bf-bcdd-d4629761e250"><path d="M54.81,54.75c-1.3-13.32-.86-28.08.72-44,.22-2.16,1.37-3.17,3.53-3.17h6.84c2.3,0,3.31,1.15,2.88,3.6-1.87,9.87-3.53,20.02-3.67,29.95h.72c1.58-15.05,6.12-19.87,12.31-19.87,6.55,0,9.72,5.4,9.72,16.49,0,4.68-.5,9.94-1.44,16.99-.29,2.16-1.08,3.24-3.24,3.24h-6.84c-2.16,0-3.6-1.08-3.24-3.24,1.15-6.84,1.44-9.72,1.44-12.6,0-5.4-1.15-8.21-3.38-8.21-2.52,0-3.74,3.6-3.74,8.86,0,3.96.79,7.99,1.44,11.95.36,2.16-1.08,3.24-3.24,3.24h-7.56c-2.16,0-3.02-1.08-3.24-3.24Z"/><path d="M104.78,44.17c1.22,1.44,3.17,2.3,5.33,2.3,4.03,0,7.56-2.81,7.92-6.34.14-1.01.43-1.51.86-1.51.36,0,.79.29,1.22.86,1.37,1.66,2.23,3.74,2.23,6.48,0,7.27-6.12,12.75-15.19,12.75-11.23,0-17.14-8.35-17.14-18.72s7.2-18.72,17.5-18.72c7.06,0,11.81,3.89,13.75,11.02.5,1.94-.36,3.24-2.3,3.74-6.26,1.66-12.31,3.38-14.19,8.14ZM111.76,36.32c-.43-1.66-1.66-2.81-3.53-2.81-2.74,0-4.9,2.59-4.9,6.48,0,.79.14,1.51.36,2.16,1.3-2.23,4.75-4.97,8.06-5.83Z"/><path d="M139.63,23.43c0,1.44-3.46,1.22-4.03,17.71h.72c1.58-15.05,6.12-19.87,12.31-19.87,6.55,0,9.72,5.4,9.72,16.49,0,4.68-.5,9.94-1.44,16.99-.29,2.16-1.08,3.24-3.24,3.24h-6.84c-2.16,0-3.6-1.08-3.24-3.24,1.15-6.84,1.44-9.72,1.44-12.6,0-5.4-1.15-8.21-3.38-8.21-2.52,0-3.74,3.6-3.74,8.86,0,3.96.79,7.99,1.44,11.95.36,2.16-1.08,3.24-3.24,3.24h-7.27c-2.16,0-2.95-1.08-3.24-3.24-1.15-8.64-1.44-18.43-1.44-29.52,0-2.16,1.08-3.24,3.24-3.24h7.56c1.8,0,4.68.07,4.68,1.44Z"/><path d="M166.84,54.82c-3.89-7.49-6.26-16.27-7.63-29.59-.22-2.09.94-3.24,3.24-3.24h6.91c2.16,0,3.1,1.01,3.24,3.24.58,8.5,2.95,18.65,5.11,21.6,1.3-1.44,2.09-6.48,2.09-11.3,0-4.54-.72-6.62-2.23-6.62-.58,0-1.01.29-1.3.94-.36.79-.72,1.15-1.01,1.15-.43,0-.72-.65-.58-2.02.43-4.75,3.74-7.7,8.78-7.7,5.54,0,8.42,3.53,8.42,10.44,0,6.26-2.38,14.91-6.62,23.11-1.01,1.94-1.87,3.17-4.03,3.17h-10.37c-2.16,0-3.02-1.22-4.03-3.17Z"/><path d="M204.5,57.99h-6.84c-2.16,0-3.24-1.08-3.24-3.24v-28.8c0-2.16,1.08-3.24,3.24-3.24h6.84c2.16,0,3.24,1.08,3.24,3.24v28.8c0,2.16-1.08,3.24-3.24,3.24Z"/><path d="M221.99,58.71c-7.63,0-11.74-7.06-11.74-18.72s4.32-18.72,11.59-18.72c6.41,0,9.58,5.18,11.16,18.43h.72c.14-8.5-.65-18.65-2.59-28.44-.5-2.45.86-3.67,3.17-3.67h6.7c2.16,0,3.24,1.08,3.46,3.24,1.58,14.47,2.02,29.45.72,43.92-.22,2.16-1.08,3.24-3.24,3.24h-6.55c-1.8,0-4.68-.07-4.68-1.51s2.81-1.87,3.02-12.02h-.72c-1.15,9.58-4.75,14.26-11.02,14.26ZM227.32,33.22c-2.38,0-3.74,2.88-3.74,7.92,0,5.33,1.51,8.64,4.03,8.64s3.82-3.46,3.82-7.71c0-5.69-1.66-8.86-4.1-8.86Z"/><path class="uuid-b650895c-d081-4154-890b-d47883039b25" d="M201.04,6.87c4.75,0,7.49,3.02,7.49,6.77s-2.74,6.77-7.49,6.77-7.49-3.02-7.49-6.77,2.74-6.77,7.49-6.77ZM207.74,54.75"/></g><g id="uuid-c6415e55-84df-4885-8771-386e5e687385"><path class="uuid-b650895c-d081-4154-890b-d47883039b25" d="M52.06,56.71c-2.92-3.75-.99-41.89-.15-45.01,1.64-4.71-6.06-3.51-10.44-1.4C28.35,16.61,4.06,30.62,4.06,39.27s27.52,15.25,40.61,17.42c4.32.72,9.07,2.18,7.39.03ZM12.94,38.06c-.89-2.11,20.75-16.6,30.59-19.26-2.5,13.67-1.01,26.29-.39,29.29-10.61,0-30.99-7.58-30.2-10.02Z"/></g></svg>